<svg xmlns="http://www.w3.org/2000/svg" viewBox="0 0 64 64" width="64" height="64">
  <defs>
    <linearGradient id="stethGrad" x1="0%" y1="0%" x2="100%" y2="100%">
      <stop offset="0%" stop-color="#0f766e"/>
      <stop offset="100%" stop-color="#14b8a6"/>
    </linearGradient>
    <linearGradient id="clockGrad" x1="0%" y1="0%" x2="100%" y2="100%">
      <stop offset="0%" stop-color="#f43f5e"/>
      <stop offset="100%" stop-color="#e11d48"/>
    </linearGradient>
  </defs>
  <!-- Stethoscope -->
  <path d="M 20 12 L 20 22 C 20 30 26 36 34 36 C 42 36 48 30 48 22 L 48 12" fill="none" stroke="url(#stethGrad)" stroke-width="4" stroke-linecap="round"/>
  <circle cx="20" cy="10" r="3.5" fill="#0f766e"/>
  <circle cx="48" cy="10" r="3.5" fill="#0f766e"/>
  <path d="M 34 36 L 34 46 C 34 50 38 53 42 53" fill="none" stroke="url(#stethGrad)" stroke-width="4" stroke-linecap="round"/>
  <circle cx="43" cy="53" r="5" fill="#0d9488"/>
  <circle cx="43" cy="53" r="2" fill="#ffffff"/>
  <!-- Clock Badge Top Right -->
  <circle cx="46" cy="18" r="9" fill="url(#clockGrad)"/>
  <circle cx="46" cy="18" r="7.5" fill="#ffffff"/>
  <polyline points="46,13 46,18 49,19" fill="none" stroke="#e11d48" stroke-width="2" stroke-linecap="round" stroke-linejoin="round"/>
</svg>
